<svg width="168" height="165" viewBox="0 0 168 165" fill="none" xmlns="http://www.w3.org/2000/svg">
<g filter="url(#filter0_d_1_3)">
<path d="M75.2 0.799999C38.4 4.8 8.8 34.4 4.8 70.4C-4.52995e-06 110.4 24.8 144.8 60 156V137.6C60 137.6 56.8 138.4 52.8 138.4C41.6 138.4 36.8 128.8 36 123.2C35.2 120 33.6 117.6 31.2 115.2C28.8 114.4 28 114.4 28 113.6C28 112 30.4 112 31.2 112C36 112 40 117.6 41.6 120C45.6 126.4 50.4 128 52.8 128C56 128 58.4 127.2 60 126.4C60.8 120.8 63.2 115.2 68 112C49.6 108 36 97.6 36 80C36 71.2 40 62.4 45.6 56C44.8 54.4 44 50.4 44 44.8C44 41.6 44 36.8 46.4 32C46.4 32 57.6 32 68.8 42.4C72.8 40.8 78.4 40 84 40C89.6 40 95.2 40.8 100 42.4C110.4 32 122.4 32 122.4 32C124 36.8 124 41.6 124 44.8C124 51.2 123.2 54.4 122.4 56C128 62.4 132 70.4 132 80C132 97.6 118.4 108 100 112C104.8 116 108 123.2 108 130.4V156.8C140.8 146.4 164 116 164 80.8C164 32.8 123.2 -4.8 75.2 0.799999Z" fill="black"/>
<path d="M75.254 1.29709L75.2579 1.29663C122.951 -4.2676 163.5 33.0895 163.5 80.8C163.5 115.542 140.754 145.584 108.5 156.114V130.4C108.5 123.447 105.573 116.477 101.065 112.273C109.921 110.222 117.656 106.659 123.24 101.466C129.038 96.0754 132.5 88.9445 132.5 80C132.5 70.3744 128.538 62.3445 122.991 55.9183C123.788 54.1359 124.5 50.8615 124.5 44.8V44.782C124.5 41.5856 124.5 36.7189 122.874 31.8419L122.76 31.5H122.4V32C122.4 31.5 122.4 31.5 122.399 31.5L122.399 31.5L122.396 31.5L122.388 31.5001L122.358 31.5004C122.333 31.5007 122.296 31.5014 122.249 31.5027C122.153 31.5054 122.014 31.5107 121.835 31.5212C121.476 31.5421 120.956 31.5837 120.3 31.6664C118.989 31.8319 117.136 32.1622 114.955 32.8214C110.654 34.1218 105.073 36.704 99.8653 41.8293C95.0723 40.2739 89.531 39.5 84 39.5C78.4988 39.5 72.9652 40.2657 68.909 41.8204C63.3235 36.7039 57.7507 34.1232 53.5478 32.8224C51.418 32.1631 49.6402 31.8326 48.3908 31.6668C47.766 31.584 47.2731 31.5423 46.934 31.5213C46.7645 31.5108 46.6334 31.5055 46.5435 31.5028C46.4985 31.5014 46.4639 31.5007 46.4398 31.5004L46.4118 31.5001L46.4039 31.5L46.4014 31.5L46.4006 31.5C46.4003 31.5 46.4 31.5 46.4 32V31.5H46.091L45.9528 31.7764C43.5 36.682 43.5 41.5804 43.5 44.7791V44.8C43.5 47.6228 43.7016 50.0491 44.0061 51.978C44.2756 53.6847 44.6298 55.0289 45.0107 55.9162C39.4589 62.3674 35.5 71.1685 35.5 80C35.5 88.9445 38.9619 96.0754 44.7595 101.466C50.3176 106.634 58.0043 110.188 66.807 112.244C62.5267 115.569 60.3372 120.837 59.5438 126.066C58.0072 126.797 55.7606 127.5 52.8 127.5C50.5977 127.5 45.9469 126.012 42.024 119.735L42.0201 119.729L42.016 119.723C41.2111 118.515 39.7858 116.477 37.9433 114.736C36.1115 113.006 33.7922 111.5 31.2 111.5H31.1857C30.7868 111.5 29.9303 111.5 29.1626 111.719C28.7722 111.831 28.3621 112.01 28.0436 112.312C27.7103 112.628 27.5 113.057 27.5 113.6C27.5 113.895 27.5782 114.173 27.7908 114.409C27.9822 114.622 28.2455 114.757 28.5143 114.864C28.7884 114.974 29.136 115.08 29.5425 115.204L29.6303 115.23C29.9983 115.342 30.4273 115.471 30.9297 115.637C33.2315 117.957 34.7436 120.256 35.5088 123.297C35.9255 126.177 37.3603 130.056 40.123 133.228C42.906 136.424 47.0382 138.9 52.8 138.9C54.8319 138.9 56.6582 138.697 57.976 138.494C58.6127 138.396 59.132 138.298 59.5 138.223V155.313C24.8613 143.966 0.556363 109.96 5.29645 70.4596L5.29694 70.4552C9.2708 34.6905 38.6846 5.27201 75.254 1.29709Z" stroke="black"/>
</g>
<defs>
<filter id="filter0_d_1_3" x="0.205551" y="0.246277" width="167.794" height="164.554" filterUnits="userSpaceOnUse" color-interpolation-filters="sRGB">
<feFlood flood-opacity="0" result="BackgroundImageFix"/>
<feColorMatrix in="SourceAlpha" type="matrix" values="0 0 0 0 0 0 0 0 0 0 0 0 0 0 0 0 0 0 127 0" result="hardAlpha"/>
<feOffset dy="4"/>
<feGaussianBlur stdDeviation="2"/>
<feComposite in2="hardAlpha" operator="out"/>
<feColorMatrix type="matrix" values="0 0 0 0 0 0 0 0 0 0 0 0 0 0 0 0 0 0 0.25 0"/>
<feBlend mode="normal" in2="BackgroundImageFix" result="effect1_dropShadow_1_3"/>
<feBlend mode="normal" in="SourceGraphic" in2="effect1_dropShadow_1_3" result="shape"/>
</filter>
</defs>
</svg>
